<?xml version="1.0" encoding="UTF-8"?>
<svg width="1200pt" height="1200pt" version="1.1" viewBox="0 0 1200 1200" xmlns="http://www.w3.org/2000/svg">
 <g>
  <path d="m600 638.4c141.6 0 255.6-136.8 255.6-304.8 0-168-114-303.6-255.6-303.6s-255.6 136.8-255.6 304.8 115.2 303.6 255.6 303.6zm0-589.2c130.8 0 236.4 128.4 236.4 285.6 0 157.2-106.8 285.6-236.4 285.6s-236.4-128.4-236.4-285.6 105.6-285.6 236.4-285.6z"/>
  <path d="m1033.2 860.4c-9.6016-46.801-49.199-80.398-112.8-93.602-52.801-12-162-84-162-85.199-3.6016-2.3984-9.6016-1.1992-13.199 2.3984-2.3984 4.8008-1.1992 9.6016 2.3984 13.199 4.8008 3.6016 112.8 74.398 168 87.602 32.398 7.1992 87.602 27.602 97.199 80.398 8.3984 55.199 10.801 110.4 8.3984 165.6-1.1953 7.2031-25.195 37.203-110.39 68.402-81.602 30-229.2 52.801-307.2 52.801-57.602 0-234-22.801-315.6-52.801-85.199-31.199-109.2-60-111.6-69.602-2.3984-55.199 1.1992-111.6 8.3984-166.8 9.6016-52.801 66-72 97.199-80.398 55.199-13.199 164.4-84 168-87.602 4.8008-2.3984 6-8.3984 2.3984-13.199-2.3984-4.8008-8.3984-6-13.199-2.3984-1.1992 1.1992-110.4 73.199-162 85.199-61.195 15.602-100.8 49.203-109.2 96-8.3984 43.199-13.199 156-8.3984 174 4.8008 18 39.602 51.602 123.6 82.801 82.801 31.199 264 54 321.6 54 79.199 0 229.2-22.801 313.2-54s117.6-62.398 122.4-82.801c4.7969-18-0.003906-130.8-7.2031-174z"/>
 </g>
</svg>
